<svg id="Layer_1" data-name="Layer 1" xmlns="http://www.w3.org/2000/svg" xmlns:xlink="http://www.w3.org/1999/xlink" viewBox="0 0 856 581"><defs><style>.cls-1,.cls-3,.cls-4,.cls-5,.cls-6,.cls-7,.cls-8,.cls-9{stroke:#fff;stroke-miterlimit:10;stroke-width:8px;}.cls-1{fill:url(#linear-gradient);}.cls-2{font-size:50.98px;font-family:SFProDisplay-Black, SF Pro Display;font-weight:800;}.cls-15,.cls-2{fill:#fff;}.cls-3{fill:url(#linear-gradient-2);}.cls-4{fill:url(#linear-gradient-3);}.cls-5{fill:url(#linear-gradient-4);}.cls-6{fill:url(#linear-gradient-5);}.cls-7{fill:url(#linear-gradient-6);}.cls-8{fill:url(#linear-gradient-7);}.cls-9{fill:none;}.cls-10{fill:url(#linear-gradient-8);}.cls-11{fill:url(#linear-gradient-9);}.cls-12{fill:url(#linear-gradient-10);}.cls-13{fill:url(#linear-gradient-11);}.cls-14{fill:url(#linear-gradient-12);}</style><linearGradient id="linear-gradient" x1="263.3" y1="421.7" x2="590.7" y2="94.3" gradientUnits="userSpaceOnUse"><stop offset="0" stop-color="#00566a"/><stop offset="1" stop-color="#008ad4"/></linearGradient><linearGradient id="linear-gradient-2" x1="580.79" y1="329.1" x2="728.41" y2="329.1" gradientTransform="translate(2.06 1.59)" gradientUnits="userSpaceOnUse"><stop offset="0" stop-color="#008ad4"/><stop offset="1" stop-color="#00566a"/></linearGradient><linearGradient id="linear-gradient-3" x1="623.88" y1="377.05" x2="771.5" y2="377.05" gradientTransform="translate(-9.03 11.64)" xlink:href="#linear-gradient-2"/><linearGradient id="linear-gradient-4" x1="697.9" y1="414.09" x2="845.52" y2="414.09" gradientTransform="translate(-47.05 46.59)" xlink:href="#linear-gradient-2"/><linearGradient id="linear-gradient-5" x1="1125.69" y1="254.4" x2="1273.31" y2="254.4" gradientTransform="matrix(1, 0, 0, -1, -1003.61, 585.09)" xlink:href="#linear-gradient-2"/><linearGradient id="linear-gradient-6" x1="1116.04" y1="131.54" x2="1263.66" y2="131.54" gradientTransform="matrix(1, 0, 0, -1, -1025.96, 520.22)" xlink:href="#linear-gradient-2"/><linearGradient id="linear-gradient-7" x1="1086.81" y1="25.18" x2="1234.43" y2="25.18" gradientTransform="matrix(1, 0, 0, -1, -1032.72, 485.87)" xlink:href="#linear-gradient-2"/><linearGradient id="linear-gradient-8" x1="180.7" y1="505.5" x2="497.77" y2="128.99" gradientUnits="userSpaceOnUse"><stop offset="0" stop-color="#ff9500"/><stop offset="1" stop-color="#ffc655"/></linearGradient><linearGradient id="linear-gradient-9" x1="155.85" y1="484.58" x2="472.92" y2="108.06" xlink:href="#linear-gradient-8"/><linearGradient id="linear-gradient-10" x1="225.44" y1="543.17" x2="542.5" y2="166.66" xlink:href="#linear-gradient-8"/><linearGradient id="linear-gradient-11" x1="250.29" y1="564.1" x2="567.35" y2="187.59" xlink:href="#linear-gradient-8"/><linearGradient id="linear-gradient-12" x1="281.35" y1="590.26" x2="598.42" y2="213.75" xlink:href="#linear-gradient-8"/></defs><title>logo-concept_rev_w-cards</title><circle class="cls-1" cx="427" cy="258" r="231.5"/><text class="cls-2" transform="translate(268.48 202.57) rotate(-64.81)">B</text><text class="cls-2" transform="matrix(0.63, -0.78, 0.78, 0.63, 287.8, 164.61)">L</text><text class="cls-2" transform="matrix(0.8, -0.61, 0.61, 0.8, 310.13, 137.1)">O</text><text class="cls-2" transform="translate(348.53 109.34) rotate(-21.41)">C</text><text class="cls-2" transform="translate(391.48 93.8) rotate(-5.99)">K</text><text class="cls-2" transform="translate(433.95 90.08) rotate(8.73)">C</text><text class="cls-2" transform="translate(478.9 98.04) rotate(24.62)">H</text><text class="cls-2" transform="matrix(0.76, 0.65, -0.65, 0.76, 520.84, 118.53)">A</text><text class="cls-2" transform="matrix(0.61, 0.79, -0.79, 0.61, 554.87, 150.29)">I</text><text class="cls-2" transform="matrix(0.43, 0.9, -0.9, 0.43, 569.73, 169.28)">N</text><rect class="cls-3" x="582.85" y="256.87" width="147.62" height="147.62" transform="translate(51 -86.12) rotate(7.81)"/><rect class="cls-4" x="614.85" y="314.87" width="147.62" height="147.62" transform="translate(245.92 -266.54) rotate(26.51)"/><rect class="cls-5" x="650.85" y="386.87" width="147.62" height="147.62" transform="translate(538 -377.48) rotate(45)"/><rect class="cls-6" x="122.08" y="256.87" width="147.62" height="147.62" transform="translate(434.89 631.7) rotate(172.19)"/><rect class="cls-7" x="90.08" y="314.87" width="147.62" height="147.62" transform="translate(484.06 663.34) rotate(153.49)"/><rect class="cls-8" x="54.08" y="386.87" width="147.62" height="147.62" transform="translate(544.08 696) rotate(135)"/><path class="cls-9" d="M190,501.94l12.13,36.86s214.74-78,449.74,0l12-34.92"/><path class="cls-10" d="M396.94,280c.1-19.68-32.2-16.89-42.5-16.94l-.18,33.45C364.56,296.55,396.85,298.86,396.94,280Z"/><path class="cls-11" d="M390.12,232.77c.09-17.91-26.87-15.32-35.45-15.36l-.16,30.33C363.09,247.79,390,249.93,390.12,232.77Z"/><path class="cls-12" d="M509,232.77c.1-17.91-26.86-15.32-35.44-15.36l-.16,30.33C482,247.79,509,249.93,509,232.77Z"/><path class="cls-13" d="M515.87,280c.1-19.68-32.21-16.89-42.51-16.94l-.18,33.45C483.48,296.55,515.78,298.86,515.87,280Z"/><path class="cls-14" d="M532.72,354.29a143,143,0,1,0-211.44,0A869.92,869.92,0,0,0,158,390.44L205,535a718.43,718.43,0,0,1,444,0l47-144.56A869.92,869.92,0,0,0,532.72,354.29ZM427.51,199.84l21,.12V200c3.15,0,6.38,0,9.67-.08l.14-25,15.18.08-.13,24.47c4.06-.06,8.15-.12,12.14-.1l.13-24.31,15.19.08-.13,25c19.61,1.82,35.11,7.94,36.75,25.94,1.22,13.18-4.33,21-13.17,25.49,14.49,3.56,23.53,12.23,21.63,31.54-2.34,24-20.25,30.32-45.81,31.65l-.13,25.2-15.2-.08.14-24.86c-3.94,0-8-.07-12.14-.18l-.13,25-15.18-.08.13-25.25c-3.56,0-7.18-.12-10.86-.15l-19.77-.1L430,296.15s11.24.24,11.05.06c4.3,0,5.45-3.06,5.73-5l.22-39.84h1.6a13.28,13.28,0,0,0-1.61-.12l.15-28.44c-.56-3.08-2.55-6.66-8.7-6.7.18-.2-11-.05-11-.05ZM328.1,251.26l.15-28.44c-.57-3.08-2.56-6.66-8.71-6.7.19-.2-11-.05-11-.05l.08-16.23,21,.12V200c3.16,0,6.39,0,9.68-.08l.13-25,15.19.08-.13,24.47c4.06-.06,8.14-.12,12.13-.1l.13-24.31,15.19.08-.12,25c19.6,1.82,35.1,7.94,36.74,25.94,1.22,13.18-4.33,21-13.16,25.49,14.48,3.56,23.52,12.23,21.63,31.54-2.35,24-20.26,30.32-45.81,31.65L381,340l-15.19-.08.13-24.86c-3.93,0-8-.07-12.13-.18l-.13,25-15.18-.08.12-25.25c-3.55,0-7.17-.12-10.85-.15l-19.78-.1,3.12-18.13s11.24.24,11,.06c4.3,0,5.46-3.06,5.74-5l.21-39.84h1.6A13.13,13.13,0,0,0,328.1,251.26Z"/><path class="cls-15" d="M236.43,489.76q-6.27-39.83-12.41-77.21,18.72-6.92,37.55-13.65c15.67-5.66,26.1-.75,28.11,12.87A21.75,21.75,0,0,1,276.83,435l.07.48c10.44-2.63,20.46,4,22.17,15.81,2.26,15.69-6.93,28.37-23.45,31.46C262.57,485.22,249.51,487.6,236.43,489.76Zm15.06-53.32,8.73-2.51c5.81-1.65,8.93-6,8.16-11.08s-4.67-7.2-10.36-5.36l-9,2.92Q250.24,428.38,251.49,436.44Zm14.71,30.47c7-1.52,10.48-6,9.51-12.44-.92-6.13-5.51-8.61-12.28-6.85l-9.8,2.53q1.45,9.38,2.91,18.88Z"/><path class="cls-15" d="M320.16,475.47q-3.78-46.43-7.55-92,11.44-2.74,22.92-5.24,3.77,46.88,7.52,94.41Z"/><path class="cls-15" d="M363.7,469.93q-1.2-48.49-2.4-96.86,9-1,17.93-1.8c10.53,16,21,32.43,31.51,49.07l.43,0q-.54-25.62-1.11-51.24,10.92-.58,21.85-.86,1,49.51,2,99-8.82.27-17.63.58c-10.52-17-21.07-33.94-31.64-50.51l-.44,0q.6,25.83,1.21,51.67Q374.56,469.44,363.7,469.93Z"/><path class="cls-15" d="M491.83,472.39c-24.79-2-38.6-21.53-37-54.24,1.53-32.27,17.21-49.39,41.42-45.56a40.94,40.94,0,0,1,34.27,39.11q-11.29-1.79-22.61-3.37c-1.15-7.2-6.07-12.54-12.69-13.47-9.78-1.38-16.05,7.9-16.91,25.26-.88,17.77,5.16,29,15.23,30,7.48.73,13.05-3.82,14.1-11.4l.18-1.31q-6-.69-11.92-1.35l1-18.8q17,2.13,34,4.61l-.66,12.26C528.82,459.46,514.51,474.17,491.83,472.39Z"/><path class="cls-15" d="M628.31,451.51c-3.83,24-21.3,37.53-45.16,33.46s-36.4-25.28-32.38-54,21.54-41,45.22-32.3C619.64,407.58,632.11,427.59,628.31,451.51Zm-54.46-14.37c-2.16,14.88,2.71,25.91,12.22,27.93s17.12-5.72,19.24-19.57-2.8-24.6-12.21-27.65S576,422.19,573.85,437.14Z"/></svg>